<?xml version="1.0" standalone="no"?>
<!DOCTYPE svg PUBLIC "-//W3C//DTD SVG 20010904//EN"
 "http://www.w3.org/TR/2001/REC-SVG-20010904/DTD/svg10.dtd">
<svg version="1.0" xmlns="http://www.w3.org/2000/svg"
 width="500.000000pt" height="500.000000pt" viewBox="0 0 500.000000 500.000000"
 preserveAspectRatio="xMidYMid meet">

<g transform="translate(0.000000,500.000000) scale(0.100000,-0.100000)"
fill="#000000" stroke="none">
<path d="M2196 4355 c-91 -23 -182 -79 -266 -164 -85 -85 -132 -152 -191 -273
-78 -157 -123 -328 -184 -702 -79 -479 -160 -691 -342 -895 -97 -108 -113
-135 -113 -198 0 -41 10 -77 40 -148 66 -155 57 -215 -71 -462 -44 -84 -79
-159 -79 -167 0 -22 172 -197 268 -274 177 -141 373 -251 577 -324 626 -224
1285 -128 1876 273 137 93 175 134 230 244 47 96 69 191 69 305 0 176 -49 303
-190 500 -151 211 -158 235 -175 682 -16 392 -32 545 -80 735 -108 431 -347
756 -631 859 -117 43 -260 29 -354 -35 l-44 -29 -27 19 c-83 58 -208 80 -313
54z m178 -40 c32 -9 71 -23 86 -32 33 -19 70 -88 77 -144 3 -23 10 -38 17 -36
13 4 15 81 3 114 -6 17 -1 26 27 48 121 92 313 83 468 -22 200 -134 368 -394
457 -704 61 -211 82 -398 101 -889 13 -346 28 -399 180 -609 45 -61 97 -144
116 -184 87 -184 85 -399 -5 -582 -50 -102 -84 -136 -224 -229 -208 -138 -415
-235 -643 -299 -177 -51 -182 -51 -190 -21 -9 36 27 139 86 242 60 106 86 175
101 274 23 146 -9 358 -71 473 -21 39 -48 102 -60 140 -24 78 -39 245 -23 245
24 0 174 109 247 179 87 84 81 85 60 -20 -6 -27 -4 -31 12 -28 38 7 94 240 94
388 0 98 -19 175 -69 283 -57 125 -61 143 -71 338 -5 97 -16 202 -25 235 -36
137 -137 304 -233 383 -65 54 -131 96 -139 88 -3 -3 -4 -7 -2 -9 70 -47 230
-220 216 -233 -2 -3 -35 -10 -71 -16 -86 -14 -179 1 -263 45 -58 30 -153 109
-153 127 0 4 7 24 15 43 17 40 20 77 6 77 -4 0 -16 -20 -26 -46 -9 -25 -42
-72 -73 -105 -77 -84 -163 -125 -297 -143 l-40 -6 30 25 c17 14 76 54 133 91
56 36 102 70 102 75 0 12 -107 -42 -192 -97 -84 -54 -183 -152 -225 -225 -43
-73 -67 -168 -59 -240 3 -31 20 -91 37 -134 40 -102 37 -140 -24 -271 -25 -54
-53 -126 -62 -159 -19 -73 -20 -232 -1 -300 17 -67 53 -145 65 -145 20 0 20
19 1 75 -11 32 -18 60 -16 62 1 2 16 -16 31 -39 35 -53 159 -176 219 -217 37
-26 48 -41 61 -83 28 -97 14 -274 -29 -356 l-14 -26 -17 54 c-26 85 -30 194
-11 269 10 35 15 66 11 69 -10 10 -35 -32 -51 -87 -27 -88 -15 -190 38 -351
55 -164 63 -226 47 -379 -11 -108 -11 -124 5 -165 9 -25 33 -59 52 -76 31 -27
42 -30 99 -30 35 0 75 -5 88 -11 59 -27 81 -135 53 -263 -20 -88 -5 -83 -170
-61 -175 23 -320 61 -483 125 -79 31 -84 35 -108 84 -14 28 -34 89 -46 136
-31 122 -23 217 31 385 47 146 59 232 40 291 -7 21 -41 81 -76 132 -90 134
-109 196 -109 352 0 138 5 160 81 373 44 120 49 147 26 133 -16 -10 -89 -186
-117 -281 -45 -153 -48 -329 -10 -446 10 -29 46 -93 80 -143 103 -152 106
-181 39 -388 -59 -181 -68 -293 -36 -428 11 -47 24 -93 28 -103 6 -17 3 -17
-37 3 -138 71 -304 198 -447 343 l-94 94 80 154 c130 250 141 324 72 485 -44
104 -51 164 -23 204 9 14 50 63 90 109 188 216 268 423 348 906 62 380 107
550 187 710 107 214 265 360 431 401 70 17 93 17 161 -1z m140 -539 c61 -61
150 -109 234 -127 54 -11 159 -8 224 7 24 5 29 1 51 -42 52 -103 68 -179 82
-385 14 -210 10 -192 94 -385 42 -97 55 -189 42 -294 -13 -98 -26 -121 -137
-233 -114 -115 -247 -197 -404 -249 -121 -41 -144 -42 -245 -13 -240 70 -446
222 -577 425 -44 68 -48 80 -48 135 0 85 23 170 75 285 63 136 66 173 24 280
-29 73 -34 97 -34 170 0 75 4 93 31 151 18 37 49 85 69 108 35 39 40 41 94 41
118 0 241 50 321 131 25 25 46 47 48 47 1 1 27 -22 56 -52z m-221 -1704 c105
-49 204 -76 272 -75 52 0 151 28 246 67 14 6 17 -5 22 -74 4 -48 19 -117 37
-171 22 -66 28 -95 20 -104 -17 -20 -149 -81 -204 -94 -69 -17 -210 -14 -280
4 -64 17 -167 64 -204 93 -23 17 -23 18 -5 62 13 35 17 77 18 188 0 78 2 141
5 139 3 -2 36 -17 73 -35z m547 -1182 c-30 -56 -213 -140 -306 -140 -52 0 -55
1 -52 23 3 20 11 23 74 29 83 8 157 34 234 81 30 18 56 32 58 31 2 -1 -2 -12
-8 -24z"/>
<path d="M3187 2098 c-43 -91 -47 -259 -9 -333 11 -22 44 -62 72 -90 94 -91
132 -162 151 -284 13 -88 2 -173 -46 -340 -39 -139 -42 -161 -20 -161 43 0
125 283 125 430 0 63 -24 167 -51 225 -12 26 -62 90 -110 141 -60 64 -91 106
-98 131 -15 53 -13 156 4 233 17 78 17 80 6 80 -5 0 -16 -15 -24 -32z"/>
<path d="M2814 3419 c-38 -11 -94 -61 -94 -83 0 -26 32 -18 67 16 29 28 42 32
105 38 l73 6 -37 17 c-41 19 -67 20 -114 6z"/>
<path d="M2053 3404 c-31 -15 -49 -41 -38 -52 3 -3 19 2 34 11 40 23 70 21
146 -9 67 -27 87 -26 69 3 -31 49 -154 76 -211 47z"/>
<path d="M2825 3156 c-43 -19 -85 -71 -85 -107 0 -35 15 -38 31 -6 21 41 62
77 95 83 33 6 80 -12 103 -40 16 -20 51 -21 51 -2 0 19 -45 64 -75 76 -36 14
-84 12 -120 -4z"/>
<path d="M2128 3139 c-15 -8 -18 -25 -18 -103 0 -98 9 -121 47 -114 16 3 18
16 21 102 3 116 -7 140 -50 115z"/>
<path d="M2460 3005 c0 -20 -15 -44 -55 -86 -43 -44 -55 -65 -55 -89 0 -41 27
-80 67 -96 44 -19 143 -19 143 0 0 9 -17 15 -51 18 -63 6 -103 34 -107 76 -3
24 6 40 42 81 48 54 58 89 31 111 -13 11 -15 8 -15 -15z"/>
<path d="M2659 2660 c-71 -82 -129 -110 -230 -110 -82 0 -109 -12 -109 -51 0
-28 66 -96 108 -110 120 -40 275 20 340 129 48 82 29 202 -33 202 -17 0 -39
-18 -76 -60z m97 -25 c8 -45 -28 -125 -57 -125 -16 0 -19 8 -19 57 0 48 4 61
27 85 31 32 40 29 49 -17z m-106 -94 c0 -39 0 -39 -47 -45 -27 -4 -63 -10 -80
-13 -53 -9 -41 20 16 40 27 9 59 26 72 37 34 28 39 25 39 -19z m-180 -45 c0
-17 -79 -28 -97 -13 -25 19 -12 27 42 27 40 0 55 -4 55 -14z"/>
</g>
</svg>
