<?xml version="1.0" standalone="no"?>
<!DOCTYPE svg PUBLIC "-//W3C//DTD SVG 20010904//EN"
 "http://www.w3.org/TR/2001/REC-SVG-20010904/DTD/svg10.dtd">
<svg version="1.0" xmlns="http://www.w3.org/2000/svg"
 width="500.000000pt" height="500.000000pt" viewBox="0 0 500.000000 500.000000"
 preserveAspectRatio="xMidYMid meet">

<g transform="translate(0.000000,500.000000) scale(0.100000,-0.100000)"
fill="#000000" stroke="none">
<path d="M2200 4384 c-53 -19 -109 -60 -169 -126 -63 -71 -115 -97 -222 -114
-113 -18 -182 -50 -254 -116 -73 -66 -115 -153 -164 -343 -50 -188 -56 -205
-127 -343 -54 -106 -58 -118 -61 -195 -4 -79 -3 -84 32 -142 78 -133 88 -160
77 -223 -15 -85 -7 -107 68 -186 37 -39 72 -81 79 -93 6 -12 11 -55 11 -95 0
-81 24 -149 58 -167 26 -14 73 -14 108 0 49 18 67 5 101 -70 23 -51 40 -76 64
-90 41 -25 114 -28 166 -6 32 14 38 14 57 0 12 -8 35 -25 53 -38 26 -18 33
-31 38 -72 4 -27 8 -57 10 -65 3 -10 -17 -27 -57 -50 -114 -66 -158 -133 -184
-284 -9 -49 -10 -51 -79 -88 -113 -61 -211 -88 -365 -100 -144 -11 -194 -25
-236 -67 -32 -32 -69 -104 -78 -152 -6 -35 -4 -39 68 -107 243 -230 592 -381
1003 -432 133 -17 477 -14 613 5 397 56 770 225 988 448 l54 54 -12 44 c-23
85 -66 146 -125 176 -19 10 -86 21 -176 29 -166 14 -281 46 -387 109 -65 37
-66 39 -77 130 -15 113 -73 181 -232 270 -1 0 3 32 8 70 l11 70 91 86 90 86
30 -34 c70 -80 137 -84 252 -15 68 40 88 47 135 48 86 2 87 2 125 36 64 56 93
134 115 308 18 139 37 193 101 281 72 101 83 131 77 229 -6 101 -35 151 -133
231 -97 80 -105 98 -105 246 0 103 -3 124 -24 168 -46 99 -108 149 -223 181
-34 9 -71 27 -81 38 -10 12 -27 51 -36 88 -30 115 -103 200 -212 250 -43 20
-62 22 -154 19 -298 -10 -259 -17 -434 79 -71 39 -88 44 -155 47 -52 2 -90 -2
-121 -13z m592 -736 c79 -23 175 -133 250 -283 65 -129 127 -326 144 -451 3
-28 10 -57 14 -64 14 -23 30 1 30 46 0 37 3 44 20 44 17 0 20 -7 20 -40 0 -34
6 -47 41 -81 45 -44 45 -59 3 -116 -41 -55 -27 -71 25 -28 35 30 55 82 45 120
-4 15 -22 36 -45 51 -36 23 -39 28 -39 71 0 65 28 95 75 80 24 -7 34 -17 38
-36 32 -158 6 -292 -70 -362 -34 -32 -85 -59 -111 -59 -18 0 -18 3 -5 73 15
78 14 147 -2 148 -10 0 -13 -10 -38 -146 -53 -289 -256 -536 -532 -645 -114
-45 -175 -55 -243 -41 -147 33 -287 108 -400 215 -160 152 -243 320 -278 559
-5 32 -13 59 -19 60 -23 5 -16 -101 17 -243 2 -11 -7 -16 -37 -18 -112 -7
-201 141 -213 354 -4 79 -2 92 14 109 19 18 19 18 24 -27 6 -51 33 -98 61
-105 24 -7 28 -73 4 -73 -25 0 -48 -47 -42 -86 10 -61 85 -140 109 -116 6 6
-1 21 -20 43 -61 71 -69 116 -22 125 26 6 29 9 23 33 -13 52 -10 65 22 71 55
12 111 60 69 60 -20 0 -13 73 22 217 60 246 192 464 308 508 39 15 49 15 97 2
30 -8 81 -26 114 -41 80 -34 150 -34 230 0 210 90 225 94 297 72z m18 -1704
c-6 -32 -10 -105 -10 -160 l0 -101 -47 -13 c-118 -32 -235 -111 -291 -195
l-30 -46 -31 45 c-40 58 -102 110 -173 145 l-58 29 -3 154 c-2 84 -8 161 -12
171 -7 18 -5 17 33 -2 61 -31 138 -58 216 -76 67 -16 73 -15 158 5 48 12 125
41 170 64 46 23 84 41 85 41 2 -1 -2 -28 -7 -61z m-677 -218 l-6 -65 -61 -3
-61 -3 70 -18 c151 -38 252 -113 310 -228 22 -42 23 -52 15 -110 -18 -127 29
-379 70 -379 15 0 12 31 -11 154 -40 210 -12 343 95 444 67 63 121 94 229 130
93 32 113 42 80 42 -15 0 -22 8 -27 31 -9 46 -7 119 3 119 21 0 130 -83 154
-117 34 -51 45 -97 57 -240 5 -67 14 -133 20 -148 13 -34 1 -54 -79 -134 -57
-55 -200 -161 -219 -161 -5 0 -28 44 -51 99 -46 109 -70 141 -105 141 -38 0
-112 -98 -104 -138 3 -16 34 19 74 84 21 34 47 3 96 -116 26 -61 49 -115 53
-118 9 -10 145 62 211 112 34 25 89 75 123 111 l61 66 -15 36 c-18 43 -33 158
-19 151 5 -2 47 -23 94 -45 111 -54 189 -73 333 -83 65 -4 120 -10 124 -13 3
-3 -7 -20 -21 -38 -37 -44 -73 -118 -91 -186 -31 -120 -7 -142 29 -27 27 83
79 184 111 214 19 17 27 20 43 11 24 -13 57 -64 76 -119 l15 -41 -77 -73
c-188 -180 -478 -317 -802 -382 -124 -25 -304 -46 -387 -46 l-43 0 0 84 c0 46
-3 91 -6 100 -14 36 -22 11 -26 -79 -2 -52 -7 -97 -11 -101 -12 -13 -284 15
-417 42 -352 71 -688 240 -851 429 -26 30 -26 30 -11 79 15 46 78 126 98 126
14 -1 76 -85 108 -146 15 -30 33 -82 39 -115 7 -35 17 -59 24 -59 16 0 16 20
3 90 -14 73 -50 149 -95 199 -21 22 -36 41 -34 42 2 0 58 4 124 9 170 11 243
33 428 128 12 6 8 -50 -8 -112 l-15 -58 44 -62 c54 -75 263 -276 287 -276 12
0 17 48 23 189 2 68 8 127 14 133 5 5 19 -5 36 -27 15 -19 34 -35 42 -35 19 0
18 6 -11 57 -28 47 -67 65 -91 42 -16 -17 -34 -103 -34 -164 0 -23 -3 -57 -6
-74 l-7 -31 -36 26 c-55 41 -107 92 -166 165 -51 62 -54 68 -45 99 5 19 14 89
20 155 15 185 40 240 144 307 l61 39 6 -25 c4 -13 4 -54 2 -90z"/>
<path d="M2033 3270 c-44 -20 -70 -57 -60 -84 9 -22 33 -20 67 4 41 29 81 34
124 16 21 -9 47 -16 57 -16 31 0 24 44 -12 74 -38 33 -113 35 -176 6z"/>
<path d="M2710 3271 c-34 -18 -61 -63 -47 -77 4 -4 32 1 63 12 l55 19 52 -28
c60 -31 85 -34 94 -11 19 51 -48 104 -132 104 -30 0 -64 -8 -85 -19z"/>
<path d="M2062 3025 c-7 -14 -12 -54 -12 -88 l0 -63 -35 4 c-27 3 -35 1 -35
-12 0 -11 9 -16 30 -16 40 0 77 -20 119 -64 19 -20 39 -36 43 -36 16 0 8 38
-14 66 -19 24 -23 41 -23 109 -1 44 -7 90 -13 103 -17 29 -46 28 -60 -3z"/>
<path d="M2760 3021 c-12 -30 -16 -128 -5 -160 4 -14 0 -23 -13 -30 -21 -11
-49 -68 -39 -78 4 -3 29 15 56 40 47 44 64 53 119 59 36 5 26 23 -13 23 l-34
0 1 57 c1 101 -43 157 -72 89z"/>
<path d="M2451 2827 c-6 -8 -30 -22 -53 -32 -62 -27 -88 -53 -88 -90 0 -63 52
-98 135 -93 65 4 69 24 8 33 -65 9 -93 28 -93 64 0 24 9 35 49 60 27 18 52 39
55 48 9 21 2 27 -13 10z"/>
<path d="M2228 2479 c-23 -13 -32 -70 -18 -114 48 -145 272 -201 415 -104 81
56 115 179 60 215 -24 16 -33 15 -128 -1 -95 -16 -108 -16 -192 -1 -104 18
-114 19 -137 5z m191 -46 c43 -3 108 0 158 7 73 12 86 11 94 -1 5 -8 8 -18 6
-22 -1 -4 -100 -9 -220 -10 -192 -2 -217 0 -217 14 0 26 13 31 60 25 25 -4 78
-9 119 -13z m243 -75 c-2 -7 -10 -20 -18 -29 -13 -15 -37 -16 -192 -11 -146 4
-179 8 -189 21 -32 42 -24 43 195 38 166 -4 206 -8 204 -19z m-112 -75 l35 -6
-35 -12 c-66 -25 -180 -15 -225 20 -18 13 -9 14 85 9 58 -3 121 -8 140 -11z"/>
</g>
</svg>
